<?xml version="1.0" encoding="utf-8"?>
<!-- Generator: Adobe Illustrator 28.0.0, SVG Export Plug-In . SVG Version: 6.00 Build 0)  -->
<svg version="1.1" baseProfile="tiny" id="Слой_2"
	 xmlns="http://www.w3.org/2000/svg" xmlns:xlink="http://www.w3.org/1999/xlink" x="0px" y="0px" width="245px" height="245px"
	 viewBox="0 0 245 245" overflow="visible" xml:space="preserve">
<path fill="#FFFFFF" d="M369.5,80c-24.85,0-45,20.15-45,45c0,24.85,20.15,45,45,45s45-20.15,45-45C414.5,100.15,394.35,80,369.5,80z
	 M369.5,151c-14.36,0-26-11.64-26-26s11.64-26,26-26s26,11.64,26,26S383.86,151,369.5,151z"/>
<path fill="#FFFFFF" d="M560.5,80c-24.85,0-45,20.15-45,45c0,24.85,20.15,45,45,45s45-20.15,45-45C605.5,100.15,585.35,80,560.5,80z
	 M560.5,151c-14.36,0-26-11.64-26-26s11.64-26,26-26s26,11.64,26,26S574.86,151,560.5,151z"/>
<path fill="#F5EDE4" d="M103.038,217.352c0,0,10.218-20.435,0-17.029c-10.218,3.406-39.955,13.184-54.494-15.894
	c-3.406-6.812-2.271-24.976-3.406-26.112c-1.135-1.135-11.353-6.812-7.947-9.082c3.406-2.271,18.165-10.218,19.3-15.894
	c1.135-5.676,2.271-18.165-6.812-30.653s4.541-31.788,4.541-35.194c0-3.406-17.123-14.477-10.218-35.194
	c2.271-6.812,1.135-5.676,4.541-2.271c3.406,3.406,13.623,17.029,30.653,9.082s34.059-15.894,51.088-10.218s19.3-4.541,38.6,3.406
	s42.006,28.382,42.006,62.441s-2.271,64.711-20.435,82.876s-44.276,22.706-39.735,29.517c4.541,6.812,6.812,10.218,6.812,10.218
	H103.038z"/>
<path display="none" fill="#FFFFFF" d="M92.5,198.337v31.383c0,1.06,1.103,1.759,2.062,1.306l33.313-15.731
	c0.396-0.187,0.855-0.184,1.248,0.007l32.302,15.689c0.959,0.466,2.076-0.233,2.076-1.299v-31.325c0-1.081-1.144-1.779-2.105-1.285
	l-32.243,16.582c-0.41,0.211-0.895,0.213-1.307,0.007l-33.254-16.627C93.63,196.565,92.5,197.264,92.5,198.337z"/>
<path fill="#FFFFFF" d="M269.5,102.479v58.471c0,4.998-4.052,9.05-9.05,9.05h0c-4.959,0-8.994-3.991-9.049-8.949l-0.797-71.716
	c-0.057-5.138,4.093-9.334,9.231-9.334H308c5.247,0,9.5,4.253,9.5,9.5v0c0,5.247-4.253,9.5-9.5,9.5h-35.021
	C271.057,99,269.5,100.557,269.5,102.479z"/>
<path fill="#FFFFFF" d="M826.5,102.479v58.471c0,4.998-4.052,9.05-9.05,9.05l0,0c-4.959,0-8.994-3.991-9.049-8.949l-0.797-71.716
	c-0.057-5.138,4.093-9.334,9.231-9.334H865c5.247,0,9.5,4.253,9.5,9.5v0c0,5.247-4.253,9.5-9.5,9.5h-35.021
	C828.057,99,826.5,100.557,826.5,102.479z"/>
<path fill="#FFFFFF" d="M493.9,120.1c-1.67-0.79-2.39-2.85-1.55-4.5c0.18-0.34,0.39-0.71,0.65-1.1c2-3,1.5-6.5,1.5-7.5
	c0-13-11.5-27.5-24-27h-33.24c-5.37,0-9.71,4.39-9.65,9.76l0.79,71.51c0.06,4.85,3.98,8.78,8.83,8.84L475,170.5
	c12.26,0.16,29-8,31-20.78V141C506.46,131.3,501.34,123.64,493.9,120.1z M447,100.07c0-0.87,0.7-1.57,1.57-1.57h18.93
	c4.69,0,8.5,3.81,8.5,8.5c0,2.34-0.95,4.47-2.49,6.01c-1.54,1.54-3.67,2.49-6.01,2.49h-18.93c-0.87,0-1.57-0.7-1.57-1.57V100.07z
	 M479.5,151.5h-30.93c-0.87,0-1.57-0.7-1.57-1.57v-13.86c0-0.87,0.7-1.57,1.57-1.57h30.93c2.34,0,4.47,0.95,6.01,2.49
	c1.54,1.54,2.49,3.67,2.49,6.01C488,147.69,484.19,151.5,479.5,151.5z"/>
<g>
	<path fill="#FFFFFF" d="M688.89,89.55c-6.01-6.01-14.31-9.73-23.49-9.73h-38c-4.3,0-7.78,3.48-7.78,7.78v73.42
		c0,5.41,4.39,9.8,9.8,9.8c5.44,0,9.8-4.41,9.8-9.79c0-0.14,0-0.27-0.01-0.4l-0.5-12.65c-0.05-1.17,0.9-2.14,2.07-2.12l24.07,0.4
		c18.56,0.31,33.77-14.66,33.77-33.22C698.62,103.86,694.9,95.56,688.89,89.55z M664.12,127.82h-23.61c-1.59,0-2.89-1.3-2.89-2.89
		v-23.22c0-1.59,1.3-2.89,2.89-2.89h23.61c4,0,7.63,1.62,10.25,4.25c2.63,2.62,4.25,6.25,4.25,10.25
		C678.62,121.33,672.13,127.82,664.12,127.82z"/>
</g>
<g>
	<path fill="#FFFFFF" d="M955.89,89.55c-6.01-6.01-14.31-9.73-23.49-9.73h-38c-4.3,0-7.78,3.48-7.78,7.78v73.42
		c0,5.41,4.39,9.8,9.8,9.8c5.44,0,9.8-4.41,9.8-9.79c0-0.14,0-0.27-0.01-0.4l-0.5-12.65c-0.05-1.17,0.9-2.14,2.07-2.12l24.07,0.4
		c18.56,0.31,33.77-14.66,33.77-33.22C965.62,103.86,961.9,95.56,955.89,89.55z M931.12,127.82h-23.61c-1.59,0-2.89-1.3-2.89-2.89
		v-23.22c0-1.59,1.3-2.89,2.89-2.89h23.61c4,0,7.63,1.62,10.25,4.25c2.63,2.62,4.25,6.25,4.25,10.25
		C945.62,121.33,939.13,127.82,931.12,127.82z"/>
</g>
<path fill="#FFFFFF" d="M720,80L720,80c5.247,0,9.5,4.253,9.5,9.5v40.436c0,1.376,1.721,1.999,2.602,0.942l39.161-46.993
	c2.051-2.461,5.089-3.884,8.293-3.884l0,0c6.02,0,10.876,4.924,10.794,10.943l-0.96,70.095c0.06,5.484-4.369,9.962-9.853,9.962l0,0
	c-5.513,0-9.954-4.524-9.852-10.036l0.734-39.609c0.026-1.408-1.75-2.045-2.625-0.941l-35.651,44.989
	c-2.302,2.904-5.804,4.598-9.51,4.598h0c-6.701,0-12.134-5.432-12.134-12.134V89.5C710.5,84.253,714.753,80,720,80z"/>
<path fill="#FFFFFF" d="M1047.18,153.28c-6.07-12.5-31.05-63.89-33.68-68.28c-3-5-9-4-9-4s-6-1-9,4
	c-2.63,4.39-27.61,55.78-33.68,68.28c-1.05,2.17-1.48,4.59-1.23,6.99c0.38,3.55,1.7,8.13,5.91,8.73c7,1,10-1,16-15l0.27-0.54
	c0.45-0.89,1.36-1.46,2.36-1.46h38.74c1,0,1.91,0.57,2.36,1.46l0.27,0.54c6,14,9,16,16,15c4.21-0.6,5.53-5.18,5.91-8.73
	C1048.66,157.87,1048.23,155.45,1047.18,153.28z M992.5,134l12-23l12,23H992.5z"/>
<path fill="#FFFFFF" d="M1134.5,90c0-6-5-9-9-9h-42.2c-7.73,0-14.73,3.42-19.8,8.94c-5.06,5.52-8.2,13.14-8.2,21.56
	c0,12.101,6.474,22.553,15.847,27.475c0.776,0.407,0.927,1.452,0.307,2.071l-13.334,13.334c-2.32,2.32-3.62,5.46-3.62,8.74
	c0,2.18,0.88,4.14,2.31,5.57c1.43,1.43,3.39,2.31,5.57,2.31h1c3.278,0,6.422-1.302,8.74-3.62l20.4-20.4
	c0.63-0.63,1.48-0.98,2.36-0.98h18.28c1.837,0,3.34,1.503,3.34,3.34v12.824c0,4.744,3.88,8.88,8.623,8.835
	c2.307-0.022,4.395-0.958,5.927-2.48c1.54-1.52,2.51-3.64,2.53-5.98l0.28-31.37l-0.05,0.01L1134.5,90z M1077.9,102.4
	c2.71-2.72,6.46-4.4,10.6-4.4h24.85c1.19,0,2.15,0.96,2.15,2.15v25.7c0,1.19-0.96,2.15-2.15,2.15h-24.85c-8.28,0-15-6.72-15-15
	C1073.5,108.86,1075.18,105.11,1077.9,102.4z"/>
</svg>
