<?xml version="1.0" encoding="utf-8"?>
<!-- Generator: Adobe Illustrator 28.0.0, SVG Export Plug-In . SVG Version: 6.00 Build 0)  -->
<svg version="1.1" baseProfile="tiny" xmlns="http://www.w3.org/2000/svg" xmlns:xlink="http://www.w3.org/1999/xlink" x="0px"
	 y="0px" width="200px" height="52px" viewBox="0 0 1260 245" overflow="visible" xml:space="preserve">

<g id="Слой_2">
	<path fill="#6203DF" d="M401,80c-24.85,0-45,20.15-45,45c0,24.85,20.15,45,45,45s45-20.15,45-45C446,100.15,425.85,80,401,80z
		 M401,151c-14.36,0-26-11.64-26-26s11.64-26,26-26s26,11.64,26,26S415.36,151,401,151z"/>
	<path fill="#6203DF" d="M592,80c-24.85,0-45,20.15-45,45c0,24.85,20.15,45,45,45s45-20.15,45-45C637,100.15,616.85,80,592,80z
		 M592,151c-14.36,0-26-11.64-26-26s11.64-26,26-26s26,11.64,26,26S606.36,151,592,151z"/>
	<path fill="#6203DF" d="M140,189c0,0,9-18,0-15s-35.194,11.613-48-14c-3-6-2-22-3-23s-10-6-7-8s16-9,17-14s2-16-6-27s4-28,4-31
		s-15.083-12.752-9-31c2-6,1-5,4-2s12,15,27,8s30-14,45-9s17-4,34,3s37,25,37,55s-2,57-18,73s-39,20-35,26s6,9,6,9H140z"/>
	<path fill="#6203DF" d="M127,194.337v31.383c0,1.06,1.103,1.759,2.062,1.306l33.313-15.731c0.396-0.187,0.855-0.184,1.248,0.007
		l32.302,15.689c0.959,0.466,2.076-0.233,2.076-1.299v-31.325c0-1.081-1.144-1.779-2.105-1.285l-32.243,16.582
		c-0.41,0.211-0.895,0.213-1.307,0.007l-33.254-16.627C128.13,192.565,127,193.264,127,194.337z"/>
	<path fill="#6203DF" d="M301,102.479v58.471c0,4.998-4.052,9.05-9.05,9.05h0c-4.959,0-8.994-3.991-9.049-8.949l-0.797-71.716
		c-0.057-5.138,4.093-9.334,9.231-9.334H339.5c5.247,0,9.5,4.253,9.5,9.5v0c0,5.247-4.253,9.5-9.5,9.5h-35.021
		C302.557,99,301,100.557,301,102.479z"/>
	<path fill="#6203DF" d="M858,102.479v58.471c0,4.998-4.052,9.05-9.05,9.05l0,0c-4.959,0-8.994-3.991-9.049-8.949l-0.797-71.716
		c-0.057-5.138,4.093-9.334,9.231-9.334H896.5c5.247,0,9.5,4.253,9.5,9.5v0c0,5.247-4.253,9.5-9.5,9.5h-35.021
		C859.557,99,858,100.557,858,102.479z"/>
	<path fill="#6203DF" d="M525.4,120.1c-1.67-0.79-2.39-2.85-1.55-4.5c0.18-0.34,0.39-0.71,0.65-1.1c2-3,1.5-6.5,1.5-7.5
		c0-13-11.5-27.5-24-27h-33.24c-5.37,0-9.71,4.39-9.65,9.76l0.79,71.51c0.06,4.85,3.98,8.78,8.83,8.84l37.77,0.39
		c12.26,0.16,29-8,31-20.78V141C537.96,131.3,532.84,123.64,525.4,120.1z M478.5,100.07c0-0.87,0.7-1.57,1.57-1.57H499
		c4.69,0,8.5,3.81,8.5,8.5c0,2.34-0.95,4.47-2.49,6.01c-1.54,1.54-3.67,2.49-6.01,2.49h-18.93c-0.87,0-1.57-0.7-1.57-1.57V100.07z
		 M511,151.5h-30.93c-0.87,0-1.57-0.7-1.57-1.57v-13.86c0-0.87,0.7-1.57,1.57-1.57H511c2.34,0,4.47,0.95,6.01,2.49
		c1.54,1.54,2.49,3.67,2.49,6.01C519.5,147.69,515.69,151.5,511,151.5z"/>
	<g>
		<path fill="#6203DF" d="M720.39,89.55c-6.01-6.01-14.31-9.73-23.49-9.73h-38c-4.3,0-7.78,3.48-7.78,7.78v73.42
			c0,5.41,4.39,9.8,9.8,9.8c5.44,0,9.8-4.41,9.8-9.79c0-0.14,0-0.27-0.01-0.4l-0.5-12.65c-0.05-1.17,0.9-2.14,2.07-2.12l24.07,0.4
			c18.56,0.31,33.77-14.66,33.77-33.22C730.12,103.86,726.4,95.56,720.39,89.55z M695.62,127.82h-23.61c-1.59,0-2.89-1.3-2.89-2.89
			v-23.22c0-1.59,1.3-2.89,2.89-2.89h23.61c4,0,7.63,1.62,10.25,4.25c2.63,2.62,4.25,6.25,4.25,10.25
			C710.12,121.33,703.63,127.82,695.62,127.82z"/>
	</g>
	<g>
		<path fill="#6203DF" d="M987.39,89.55c-6.01-6.01-14.31-9.73-23.49-9.73h-38c-4.3,0-7.78,3.48-7.78,7.78v73.42
			c0,5.41,4.39,9.8,9.8,9.8c5.44,0,9.8-4.41,9.8-9.79c0-0.14,0-0.27-0.01-0.4l-0.5-12.65c-0.05-1.17,0.9-2.14,2.07-2.12l24.07,0.4
			c18.56,0.31,33.77-14.66,33.77-33.22C997.12,103.86,993.4,95.56,987.39,89.55z M962.62,127.82h-23.61c-1.59,0-2.89-1.3-2.89-2.89
			v-23.22c0-1.59,1.3-2.89,2.89-2.89h23.61c4,0,7.63,1.62,10.25,4.25c2.63,2.62,4.25,6.25,4.25,10.25
			C977.12,121.33,970.63,127.82,962.62,127.82z"/>
	</g>
	<path fill="#6203DF" d="M751.5,80L751.5,80c5.247,0,9.5,4.253,9.5,9.5v40.436c0,1.376,1.721,1.999,2.602,0.942l39.161-46.993
		c2.051-2.461,5.089-3.884,8.293-3.884l0,0c6.02,0,10.876,4.924,10.794,10.943l-0.96,70.095c0.06,5.484-4.369,9.962-9.853,9.962l0,0
		c-5.513,0-9.954-4.524-9.852-10.036l0.734-39.609c0.026-1.408-1.75-2.045-2.625-0.941l-35.651,44.989
		c-2.302,2.904-5.804,4.598-9.51,4.598h0c-6.701,0-12.134-5.432-12.134-12.134V89.5C742,84.253,746.253,80,751.5,80z"/>
	<path fill="#6203DF" d="M1078.68,153.28c-6.07-12.5-31.05-63.89-33.68-68.28c-3-5-9-4-9-4s-6-1-9,4
		c-2.63,4.39-27.61,55.78-33.68,68.28c-1.05,2.17-1.48,4.59-1.23,6.99c0.38,3.55,1.7,8.13,5.91,8.73c7,1,10-1,16-15l0.27-0.54
		c0.45-0.89,1.36-1.46,2.36-1.46h38.74c1,0,1.91,0.57,2.36,1.46L1058,154c6,14,9,16,16,15c4.21-0.6,5.53-5.18,5.91-8.73
		C1080.16,157.87,1079.73,155.45,1078.68,153.28z M1024,134l12-23l12,23H1024z"/>
	<path fill="#6203DF" d="M1166,90c0-6-5-9-9-9h-42.2c-7.73,0-14.73,3.42-19.8,8.94c-5.06,5.52-8.2,13.14-8.2,21.56
		c0,12.101,6.474,22.553,15.847,27.475c0.776,0.407,0.927,1.452,0.307,2.071l-13.334,13.334c-2.32,2.32-3.62,5.46-3.62,8.74
		c0,2.18,0.88,4.14,2.31,5.57c1.43,1.43,3.39,2.31,5.57,2.31h1c3.278,0,6.422-1.302,8.74-3.62l20.4-20.4
		c0.63-0.63,1.48-0.98,2.36-0.98h18.28c1.837,0,3.34,1.503,3.34,3.34v12.824c0,4.744,3.88,8.88,8.623,8.835
		c2.307-0.022,4.395-0.958,5.927-2.48c1.54-1.52,2.51-3.64,2.53-5.98l0.28-31.37l-0.05,0.01L1166,90z M1109.4,102.4
		c2.71-2.72,6.46-4.4,10.6-4.4h24.85c1.19,0,2.15,0.96,2.15,2.15v25.7c0,1.19-0.96,2.15-2.15,2.15H1120c-8.28,0-15-6.72-15-15
		C1105,108.86,1106.68,105.11,1109.4,102.4z"/>
</g>
</svg>
