<?xml version="1.0" encoding="utf-8"?>
<!-- Generator: Adobe Illustrator 28.0.0, SVG Export Plug-In . SVG Version: 6.00 Build 0)  -->
<svg version="1.1" baseProfile="tiny"
	 xmlns="http://www.w3.org/2000/svg" xmlns:xlink="http://www.w3.org/1999/xlink" x="0px" y="0px" width="16px" height="16px"
	 viewBox="0 0 64 64" overflow="visible" xml:space="preserve">
<path fill="#F5EDE4" d="M60,31c0.824,0.412,0.824,1.588,0,2h0L9.31,58.84c-0.21,0.11-0.43,0.18-0.65,0.23
	c-1.99,0.4-3.61-1.59-2.83-3.45l7.64-18.35c0.33-0.79,1.04-1.36,1.88-1.52l20.43-3.71c0.14-0.03,0.3-0.04,0.45-0.04
	c-0.15,0-0.31-0.01-0.45-0.04l-20.43-3.71c-0.84-0.16-1.55-0.73-1.88-1.52L5.83,8.38C5.05,6.52,6.67,4.53,8.66,4.93
	C8.88,4.98,9.1,5.05,9.31,5.16L60,31L60,31z"/>
</svg>
